<svg xmlns="http://www.w3.org/2000/svg" width="87.553" height="108.821" viewBox="0 0 87.553 108.821">
  <g id="Grupo_62" data-name="Grupo 62" transform="translate(-471.488 -136.907)">
    <g id="Grupo_61" data-name="Grupo 61">
      <path id="Trazado_881" data-name="Trazado 881" d="M552.309,136.907a36.369,36.369,0,0,0-2.683,3.8c-.511.831-.959,1.613-1.342,2.4a2.321,2.321,0,0,0-.128.287c-.335.671-.639,1.326-.894,1.965a26.708,26.708,0,0,0-1.038,3.083c-.176.623-.3,1.246-.432,1.8-.1.575-.191,1.134-.255,1.629a61.014,61.014,0,0,0-4.313,18.353c-1.1,14.9,4.233,20.525,1.517,32.665a35.739,35.739,0,0,1-10.4,18.624c-12.459,11.389-29.438,8.45-32.058,7.939a35.37,35.37,0,0,1-16.963-7.875,31.89,31.89,0,0,1-3.146-3.147c-7.843-11.42-7.6-24.215-7.412-27.841l.192-.766c.159-.591.335-1.182.511-1.757.064-.192.112-.368.176-.543.063-.208.143-.416.207-.623.08-.24.16-.48.256-.719.064-.16.112-.336.192-.511.191-.543.415-1.07.638-1.613a.172.172,0,0,0,.032-.1c.032-.032.032-.064.064-.128.1-.224.192-.431.288-.639a1.1,1.1,0,0,1,.048-.128,1.473,1.473,0,0,1,.08-.175c.063-.144.127-.272.191-.416a8.431,8.431,0,0,1,.447-.926c.288-.591.592-1.15.895-1.709.064-.112.128-.208.192-.32.175-.3.335-.591.511-.894.064-.112.144-.24.223-.352.112-.207.24-.415.368-.607.112-.207.255-.383.367-.591.128-.175.256-.383.4-.575.351-.543.734-1.054,1.134-1.581a2.06,2.06,0,0,1,.159-.224c0-.016.032-.032.048-.064.272-.383.575-.75.863-1.134a.834.834,0,0,0,.16-.175c.175-.208.351-.448.559-.655a.808.808,0,0,1,.159-.176c.176-.223.352-.415.527-.623.208-.223.4-.431.623-.671.128-.111.24-.239.368-.367.287-.288.575-.591.878-.9s.607-.591.943-.894c.175-.176.335-.335.527-.495.271-.256.559-.5.846-.735a1.434,1.434,0,0,1,.288-.24c.191-.175.383-.351.591-.527a.8.8,0,0,0,.144-.1.534.534,0,0,1,.143-.1q.718-.576,1.486-1.15a1.977,1.977,0,0,1,.191-.128c.528-.383,1.055-.751,1.614-1.1a2.023,2.023,0,0,1,.223-.16l.048-.032c.24-.144.639-.4.879-.543.383-.24.8-.5,1.166-.719q-.24.408-.479.911a39.168,39.168,0,0,0-2,4.584,44.37,44.37,0,0,0-.99,25.493,47.407,47.407,0,0,0,7.475,16.276c.176.256.351.511.527.751a19.84,19.84,0,0,0,27.042,7.219c.272-.159.527-.351.8-.527.3-.191.623-.367.91-.575a20.966,20.966,0,0,0,2.955-2.619,22.648,22.648,0,0,0,2.316-3.067c.08-.144.128-.3.224-.447.288-.511.559-1.022.815-1.566a.2.2,0,0,1,.064-.111c.063-.192.143-.368.223-.559.128-.3.272-.623.383-.927.1-.287.192-.575.272-.862a.121.121,0,0,0,.016-.064c.032-.032.016-.064.048-.1.048-.144.1-.3.128-.431,0-.048.016-.048.016-.08.016-.016.016-.048.032-.1a21.258,21.258,0,0,0,.447-2.172.779.779,0,0,1,.016-.192,16.6,16.6,0,0,0,.175-2.013.268.268,0,0,1,.016-.111c0-.112-.016-.24-.016-.352,0-.367.016-.735,0-1.1a9.107,9.107,0,0,0-.079-1.166,4.47,4.47,0,0,0-.016-.463c-.048-.336-.1-.7-.176-1.038-.048-.288-.112-.591-.176-.863,0,0-.128-.559-.271-1.086-.368-1.262-2.284-5.846-3.179-9.073a39.844,39.844,0,0,1-1.214-9.424c-.016-.5-.032-.99-.032-1.485a45.156,45.156,0,0,1,1.486-11.868c.287-1.038.607-2.061.958-3.051a46.469,46.469,0,0,1,2.6-6.006,43.089,43.089,0,0,1,17.378-17.858Z" fill="#c1d38c"/>
      <path id="Trazado_882" data-name="Trazado 882" d="M557.692,212.555a45.247,45.247,0,0,1-12.235,20.973,44.2,44.2,0,0,1-13.178,8.737,43.364,43.364,0,0,1-12.762,3.258,44.448,44.448,0,0,1-23.752-4.36,45.174,45.174,0,0,1-19.3-18.992,50.767,50.767,0,0,1-4.521-14.184,54.554,54.554,0,0,1-.447-8.306c.036-1.122.117-2.1.128-2.236a35.481,35.481,0,0,1,.687-4.856c.08-.351.144-.7.223-1.038s.144-.655.224-.959c-.192,3.626-.431,16.421,7.412,27.841q.263.384.575.815c.191.271.415.559.639.862.495.639,1.054,1.342,1.709,2.077.431.5,1.006,1.134,1.709,1.869.175.191.367.383.591.591.191.207.415.415.654.639.224.207.464.415.7.655,0,.015,0,.015.016,0q1.1,1.029,2.444,2.06c0,.016.016,0,.016,0,.3.24.607.463.927.7.319.223.654.463.99.687q.719.5,1.486.958.6.36,1.245.719a.648.648,0,0,1,.144.08c.623.335,1.278.671,1.949.958.671.3,1.373.591,2.092.863a7.644,7.644,0,0,0,.959.319c.3.112.59.208.878.288a1.252,1.252,0,0,0,.24.063,33.017,33.017,0,0,0,12.011,1.182c.783-.031,1.5-.1,2.157-.159.287-.032.623-.064.958-.1.176-.016.351-.048.527-.064.384-.048.767-.112,1.166-.16.623-.1,1.294-.207,2-.351.223-.048.463-.1.7-.144.271-.064.575-.128.926-.208.08-.015.176-.047.256-.063a40.483,40.483,0,0,0,14.519-6.565c.144-.112.287-.208.431-.336.384-.271.767-.559,1.118-.862.24-.192.464-.384.687-.559.655-.559,1.31-1.15,1.949-1.773.367-.352.719-.719,1.07-1.07.511-.544.99-1.087,1.47-1.646a.16.16,0,0,1,.064-.08c.4-.463.766-.942,1.118-1.4a45.3,45.3,0,0,0,5.175-8.482c.048-.1.1-.192.143-.271.048-.112.1-.208.144-.3.144-.287.288-.575.4-.862a52.25,52.25,0,0,0,3.242-8.562c.048-.128.08-.239.112-.351.144-.495.287-.975.4-1.454a7.481,7.481,0,0,0,.192-.814,10.181,10.181,0,0,0,.24-1.055c.175-.846.3-1.661.415-2.428.064-.383.112-.8.143-1.213.048-.48.1-.943.128-1.374.032-.671.064-1.294.064-1.869v-.255a22.351,22.351,0,0,0-.048-2.524,32.733,32.733,0,0,0-.431-3.754c-.032-.207-.064-.4-.1-.607-.032-.16-.048-.319-.08-.479-.047-.272-.111-.543-.159-.8a.059.059,0,0,1-.016-.048c-.064-.271-.128-.543-.192-.8-.1-.416-.192-.815-.3-1.2l-.048-.192c-.079-.24-.143-.463-.207-.687-.032-.112-.064-.207-.1-.319-.08-.272-.176-.543-.255-.8s-.176-.495-.256-.735a44.74,44.74,0,0,1,4.616,9.376A45.936,45.936,0,0,1,557.692,212.555Z" fill="#738952"/>
      <path id="Trazado_883" data-name="Trazado 883" d="M528.174,159.477a34.52,34.52,0,0,0-12.347,3.53c-14.375,7.284-22.857,24.918-20.254,40a31.579,31.579,0,0,0,2.572,8.035c-.176-.24-.351-.495-.527-.751a47.407,47.407,0,0,1-7.475-16.276,44.37,44.37,0,0,1,.99-25.493,39.168,39.168,0,0,1,2-4.584q.238-.5.479-.911a40.453,40.453,0,0,1,14.359-5.287A41.287,41.287,0,0,1,528.174,159.477Z" fill="#738952"/>
      <path id="Trazado_884" data-name="Trazado 884" d="M554.066,189.986v.255c0,.575-.032,1.2-.064,1.869-.032.431-.08.894-.128,1.374-.031.4-.079.8-.143,1.213-.112.767-.24,1.582-.415,2.428a10.181,10.181,0,0,1-.24,1.055,7.481,7.481,0,0,1-.192.814c-.112.479-.255.959-.4,1.454-.032.112-.064.223-.112.351-.128.4-.287.879-.495,1.438-.687,1.948-1.534,4.408-2.747,7.124-.112.287-.256.575-.4.862-.048.1-.1.192-.144.3-.047.079-.095.175-.143.271a50.543,50.543,0,0,1-5.175,8.482c-.352.463-.719.942-1.118,1.4a.16.16,0,0,0-.064.08c-.48.543-.975,1.1-1.47,1.646-.351.351-.7.718-1.07,1.07-.639.623-1.294,1.214-1.949,1.773-.223.175-.447.367-.687.559-.367.3-.75.591-1.118.862a41.716,41.716,0,0,1-14.95,6.9c-.08.016-.176.048-.256.063-.319.064-.623.144-.926.208-.24.048-.48.1-.7.144-.7.144-1.374.255-2,.351-.4.048-.782.112-1.166.16-.176.016-.351.048-.527.064-.335.032-.671.064-.958.1-.655.064-1.374.128-2.157.159-1.469.064-2.683.032-3.53,0a47.788,47.788,0,0,1-7.859-1.038c-.127-.032-.271-.064-.4-.1-.447-.127-.894-.255-1.341-.4a7.644,7.644,0,0,1-.959-.319c-.719-.272-1.421-.559-2.092-.863s-1.326-.623-1.949-.958a.648.648,0,0,0-.144-.08q-.646-.36-1.245-.719-.768-.454-1.486-.958c-.336-.224-.671-.464-.99-.687-.32-.24-.623-.463-.927-.7,0,0-.016.016-.016,0-.894-.7-1.709-1.406-2.444-2.06-.016.015-.016.015-.016,0-.239-.24-.479-.448-.7-.655-.223-.224-.431-.432-.654-.639s-.416-.4-.591-.591c-.7-.735-1.278-1.374-1.709-1.869-.655-.735-1.214-1.438-1.709-2.077-.224-.3-.448-.591-.639-.862q-.312-.432-.575-.815a31.89,31.89,0,0,0,3.146,3.147,35.37,35.37,0,0,0,16.963,7.875c2.62.511,19.6,3.45,32.058-7.939a35.739,35.739,0,0,0,10.4-18.624c2.716-12.14-2.619-17.762-1.517-32.665a61.014,61.014,0,0,1,4.313-18.353,33.7,33.7,0,0,0,.207,7.412,40.992,40.992,0,0,0,3,10.3c.288.687,1.07,2.46,2.221,5.255.495,1.2.878,2.125.91,2.2.08.24.176.48.256.735s.175.527.255.8c.032.112.064.207.1.319.064.224.128.447.207.687l.048.192c.112.4.208.782.3,1.2.064.255.128.527.192.8a.059.059,0,0,0,.016.048c.048.256.112.527.159.8.032.16.048.319.08.479.032.208.064.4.1.607A46.583,46.583,0,0,1,554.066,189.986Z" fill="#fbf6dc"/>
    </g>
  </g>
</svg>
