<svg xmlns="http://www.w3.org/2000/svg" width="962.941" height="901.404" viewBox="0 0 962.941 901.404">
  <g id="Grupo_96" data-name="Grupo 96" transform="translate(-376.408 -848.139)">
    <path id="Trazado_933" data-name="Trazado 933" d="M874.8,1251.153,491.549,867.9a67.444,67.444,0,1,0-95.384,95.378L731.72,1298.841,396.165,1634.4a67.444,67.444,0,1,0,95.384,95.378L874.8,1346.529A67.41,67.41,0,0,0,874.8,1251.153Z" fill="#172a41"/>
    <path id="Trazado_934" data-name="Trazado 934" d="M713.633,867.9a67.44,67.44,0,0,0-95.372,95.378L953.8,1298.841,618.262,1634.4a67.44,67.44,0,1,0,95.372,95.378l383.249-383.253a67.41,67.41,0,0,0,0-95.376Z" transform="translate(222.701)" fill="#172a41"/>
  </g>
</svg>
