<svg xmlns="http://www.w3.org/2000/svg" width="200.494" height="32.771" viewBox="0 0 200.494 32.771">
  <g id="Grupo_61" data-name="Grupo 61" transform="translate(-57.626 -1115.24)">
    <path id="Trazado_873" data-name="Trazado 873" d="M114.047,1134.706a30.066,30.066,0,0,0-3.905-1.343,21.237,21.237,0,0,1-3.832-1.318,2.636,2.636,0,0,1-1.586-2.489,2.552,2.552,0,0,1,.684-1.928,3.6,3.6,0,0,1,1.683-.9,8.527,8.527,0,0,1,2.027-.244,7.141,7.141,0,0,1,3.2.878,12.119,12.119,0,0,1,3.1,2.246l2.879-3.173a10.077,10.077,0,0,0-4.442-3.125,14.659,14.659,0,0,0-4.978-.976,11.24,11.24,0,0,0-4.491.9,8.524,8.524,0,0,0-3.392,2.538,6.14,6.14,0,0,0-1.293,3.93,6.465,6.465,0,0,0,1.343,4.32,8.814,8.814,0,0,0,3.367,2.441,34.379,34.379,0,0,0,4.124,1.44,26.385,26.385,0,0,1,2.588.756,5.353,5.353,0,0,1,1.878,1.074,2.38,2.38,0,0,1,.708,1.83,2.716,2.716,0,0,1-.659,1.928,3.832,3.832,0,0,1-1.586,1.025,5.7,5.7,0,0,1-1.855.317,9.041,9.041,0,0,1-4.124-.854,9.9,9.9,0,0,1-3-2.368l-3.417,2.928a10.323,10.323,0,0,0,4.613,3.442,15.764,15.764,0,0,0,5.491,1,11.3,11.3,0,0,0,4.465-.9,8.592,8.592,0,0,0,3.467-2.612,6.433,6.433,0,0,0,1.343-4.1,6.7,6.7,0,0,0-1.244-4.32A7.981,7.981,0,0,0,114.047,1134.706Z" transform="translate(-6.359 -1.088)" fill="#fff"/>
    <path id="Trazado_874" data-name="Trazado 874" d="M135.467,1128.018a7.737,7.737,0,0,1,4.149-1.147,8.059,8.059,0,0,1,4.026,1.2,9.493,9.493,0,0,1,3.2,2.855l2.783-3.417a10.046,10.046,0,0,0-4.149-3.734,13.621,13.621,0,0,0-6.346-1.44,11.786,11.786,0,0,0-6.346,1.757,12.565,12.565,0,0,0-4.466,4.759,14.941,14.941,0,0,0,0,13.594,12.513,12.513,0,0,0,4.466,4.784,11.785,11.785,0,0,0,6.346,1.757,13.082,13.082,0,0,0,4.3-.708,14.277,14.277,0,0,0,3.661-1.855,10.5,10.5,0,0,0,2.538-2.464l-2.783-3.417a14.669,14.669,0,0,1-2.928,2.636,7.2,7.2,0,0,1-4.247,1.269,7.588,7.588,0,0,1-4.027-1.147,8.705,8.705,0,0,1-3.026-3.124,8.833,8.833,0,0,1-1.147-4.515,9.305,9.305,0,0,1,1.074-4.515A8.2,8.2,0,0,1,135.467,1128.018Z" transform="translate(-10.598 -1.088)" fill="#fff"/>
    <path id="Trazado_875" data-name="Trazado 875" d="M177.223,1124.04a12.971,12.971,0,0,0-6.614-1.708,13.1,13.1,0,0,0-6.638,1.708,12.591,12.591,0,0,0-4.71,4.71,14.631,14.631,0,0,0,0,13.814,12.586,12.586,0,0,0,4.71,4.711,13.1,13.1,0,0,0,6.638,1.708,12.972,12.972,0,0,0,6.614-1.708,12.653,12.653,0,0,0,4.686-4.711,14.638,14.638,0,0,0,0-13.814A12.658,12.658,0,0,0,177.223,1124.04Zm.293,16.132a7.973,7.973,0,0,1-2.855,3.1,7.513,7.513,0,0,1-4.051,1.123,7.634,7.634,0,0,1-4.075-1.123,7.889,7.889,0,0,1-2.88-3.1,9.079,9.079,0,0,1-1-4.515,9.192,9.192,0,0,1,1-4.564,7.926,7.926,0,0,1,11.007-3.075,7.8,7.8,0,0,1,2.855,3.075,9.219,9.219,0,0,1,1,4.564A9.106,9.106,0,0,1,177.516,1140.172Z" transform="translate(-15.332 -1.088)" fill="#fff"/>
    <path id="Trazado_876" data-name="Trazado 876" d="M212.308,1138.391a5.826,5.826,0,0,1-1.9,4.637,6.676,6.676,0,0,1-4.539,1.659,5.6,5.6,0,0,1-3.441-1,5.663,5.663,0,0,1-1.953-2.66,10.38,10.38,0,0,1-.61-3.612v-14.449h-5.028v15.815q0,4.833,2.49,7.566a8.369,8.369,0,0,0,6.492,2.733,9.434,9.434,0,0,0,5.2-1.392,10.353,10.353,0,0,0,3.294-3.2v4.1h5.027v-25.626h-5.027Z" transform="translate(-21.058 -1.186)" fill="#fff"/>
    <path id="Trazado_877" data-name="Trazado 877" d="M237.529,1115.24H232.5v6.541h-5.321v4.881H232.5v20.745h5.027v-20.745h5.955v-4.881h-5.955Z" transform="translate(-26.022)" fill="#fff"/>
    <path id="Trazado_878" data-name="Trazado 878" d="M270.062,1126.237a11.116,11.116,0,0,0-3.246-2.734,9.246,9.246,0,0,0-4.71-1.172,12.359,12.359,0,0,0-6.443,1.684,11.852,11.852,0,0,0-4.442,4.686,14.377,14.377,0,0,0-1.611,6.907,14.889,14.889,0,0,0,1.562,6.931,12.069,12.069,0,0,0,4.222,4.735,10.665,10.665,0,0,0,5.882,1.708,9.922,9.922,0,0,0,5.32-1.416,11.978,11.978,0,0,0,3.466-3.026v3.954h5.077v-25.626h-5.077Zm-.781,13.838a7.739,7.739,0,0,1-2.733,3.124,7.338,7.338,0,0,1-4.1,1.147,7.162,7.162,0,0,1-4-1.147,7.728,7.728,0,0,1-2.733-3.124,9.941,9.941,0,0,1-.976-4.466,9.785,9.785,0,0,1,.976-4.442,7.6,7.6,0,0,1,2.733-3.075,7.8,7.8,0,0,1,8.1.025,7.775,7.775,0,0,1,2.733,3.1,9.671,9.671,0,0,1,.977,4.393A9.941,9.941,0,0,1,269.281,1140.075Z" transform="translate(-29.465 -1.088)" fill="#fff"/>
    <path id="Trazado_879" data-name="Trazado 879" d="M292.419,1146.224a3.111,3.111,0,0,0-2.538-1,2.951,2.951,0,0,0-2.539,1.122,4.168,4.168,0,0,0-.83,2.539,4.034,4.034,0,0,0,.83,2.66,3.112,3.112,0,0,0,2.539,1,2.925,2.925,0,0,0,2.538-1.147,4.2,4.2,0,0,0,.83-2.513A4.041,4.041,0,0,0,292.419,1146.224Z" transform="translate(-35.128 -4.602)" fill="#fff"/>
    <path id="Trazado_880" data-name="Trazado 880" d="M72.521,1134.174l-11.453-11.453a2.016,2.016,0,0,0-2.851,2.85L68.245,1135.6l-10.028,10.029a2.016,2.016,0,0,0,2.851,2.85l11.453-11.453A2.014,2.014,0,0,0,72.521,1134.174Z" transform="translate(0 -1.057)" fill="#ff6c79"/>
    <path id="Trazado_881" data-name="Trazado 881" d="M76.77,1122.721a2.015,2.015,0,0,0-2.85,2.85L83.948,1135.6,73.92,1145.628a2.015,2.015,0,0,0,2.85,2.85l11.453-11.453a2.015,2.015,0,0,0,0-2.85Z" transform="translate(-2.41 -1.057)" fill="#ff6c79"/>
  </g>
</svg>
