<svg xmlns="http://www.w3.org/2000/svg" width="312.323" height="70.119" viewBox="0 0 312.323 70.119">
  <g id="Grupo_1492" data-name="Grupo 1492" transform="translate(273.864 -5259.726)">
    <g id="Grupo_59" data-name="Grupo 59" transform="translate(-346.047 5102.605)">
      <path id="Trazado_873" data-name="Trazado 873" d="M116.787,212.9v13.45h-44.6v-69.23H87.71l-.1,55.78Z" fill="#fff"/>
      <path id="Trazado_874" data-name="Trazado 874" d="M136.22,223.433a22.891,22.891,0,0,1-8.407-9.989,33.9,33.9,0,0,1,0-26.6A23.228,23.228,0,0,1,136.22,176.8q5.687-3.856,14.192-3.858,11.076,0,17.6,6.973t6.528,20.226V204.4H139.929v.791a9.677,9.677,0,0,0,2.818,6.972,9.536,9.536,0,0,0,7.171,2.918,10.333,10.333,0,0,0,5.736-1.533,8.353,8.353,0,0,0,3.362-4.1h15.132a23.425,23.425,0,0,1-8.159,12.807q-6.182,5-15.775,4.994A24.586,24.586,0,0,1,136.22,223.433Zm23.587-28.928q-.1-5.342-2.719-7.912a9.528,9.528,0,0,0-6.972-2.571,9.272,9.272,0,0,0-7.072,2.769q-2.622,2.771-2.72,7.714Z" fill="#fff"/>
      <path id="Trazado_875" data-name="Trazado 875" d="M184.828,174.032h15.33v8.111h.791a12.989,12.989,0,0,1,1.928-3.412,15.1,15.1,0,0,1,4.6-3.956,14.427,14.427,0,0,1,7.517-1.831,14.254,14.254,0,0,1,8.258,2.276,17.014,17.014,0,0,1,4.895,4.8,15.258,15.258,0,0,1,1.879,3.709h.693a23.847,23.847,0,0,1,4.9-7.072q3.51-3.708,11.127-3.709,6.921,0,10.879,3.611a18.43,18.43,0,0,1,5.39,8.356,30.9,30.9,0,0,1,1.434,8.9v32.538h-15.33V195.593q0-4.648-2.423-7.071a8.01,8.01,0,0,0-5.884-2.423,8.26,8.26,0,0,0-5.984,2.472q-2.521,2.474-2.522,7.022v30.758H216.971V195.593q0-4.648-2.423-7.071a8.014,8.014,0,0,0-5.885-2.423,8.258,8.258,0,0,0-5.983,2.472q-2.523,2.474-2.522,7.022v30.758h-15.33Z" fill="#fff"/>
      <path id="Trazado_876" data-name="Trazado 876" d="M335.352,174.032h15.429v7.616h.791a14.845,14.845,0,0,1,5.489-6.181,16.365,16.365,0,0,1,9.247-2.523q10.285,0,14.242,6.479a27.26,27.26,0,0,1,3.956,14.488v32.44H369.078V196.582q0-5.142-2.275-8.11a7.949,7.949,0,0,0-6.725-2.967q-4.748,0-7.022,3.115a13.152,13.152,0,0,0-2.275,7.962v29.769H335.352Z" fill="#fff"/>
    </g>
    <g id="Grupo_60" data-name="Grupo 60" transform="translate(-346.047 5102.605)">
      <path id="Trazado_877" data-name="Trazado 877" d="M324.092,158.222a22.913,22.913,0,0,0-1.68,2.38c-.32.521-.6,1.01-.84,1.5a1.415,1.415,0,0,0-.08.18c-.21.421-.4.83-.56,1.231a16.861,16.861,0,0,0-.65,1.93c-.11.39-.19.779-.27,1.13-.06.36-.12.709-.16,1.019a38.224,38.224,0,0,0-2.7,11.491c-.69,9.329,2.65,12.85.95,20.449a22.385,22.385,0,0,1-6.51,11.661c-7.8,7.13-18.43,5.289-20.07,4.969a22.115,22.115,0,0,1-10.62-4.93,20.021,20.021,0,0,1-1.97-1.969c-4.91-7.151-4.76-15.161-4.64-17.43l.12-.481c.1-.37.21-.74.32-1.1.04-.12.07-.23.11-.341.04-.13.09-.26.13-.389.05-.15.1-.3.16-.45.04-.1.07-.211.12-.32.12-.341.26-.67.4-1.011a.1.1,0,0,0,.02-.059c.02-.021.02-.04.04-.081.06-.139.12-.269.18-.4a.626.626,0,0,1,.03-.08.839.839,0,0,1,.05-.11c.04-.091.08-.171.12-.26a5.111,5.111,0,0,1,.28-.581c.18-.37.37-.719.56-1.07.04-.07.08-.13.12-.2.11-.189.21-.37.32-.56.04-.069.09-.149.14-.219.07-.131.15-.261.23-.381s.16-.239.23-.369c.08-.11.16-.24.25-.36.22-.341.46-.661.71-.99a1.132,1.132,0,0,1,.1-.14c0-.01.02-.021.03-.041.17-.24.36-.469.54-.709a.549.549,0,0,0,.1-.11c.11-.13.22-.281.35-.411a.518.518,0,0,1,.1-.109c.11-.141.22-.261.33-.391.13-.14.25-.27.39-.419.08-.07.15-.151.23-.23.18-.181.36-.371.55-.561s.38-.37.59-.56c.11-.11.21-.209.33-.31.17-.159.35-.31.53-.459a.935.935,0,0,1,.18-.151c.12-.109.24-.219.37-.33a.427.427,0,0,0,.09-.06.376.376,0,0,1,.09-.06q.45-.36.93-.719a1.25,1.25,0,0,1,.12-.081c.33-.239.66-.469,1.01-.69a1.2,1.2,0,0,1,.14-.1l.03-.021c.15-.089.4-.25.55-.339.24-.15.5-.31.73-.45-.1.169-.2.36-.3.57a24.457,24.457,0,0,0-1.25,2.87,27.777,27.777,0,0,0-.62,15.959,29.678,29.678,0,0,0,4.68,10.19c.11.161.22.32.33.471a12.423,12.423,0,0,0,16.93,4.519c.17-.1.33-.219.5-.329.19-.12.39-.231.57-.36a13.279,13.279,0,0,0,1.85-1.64,14.225,14.225,0,0,0,1.45-1.921c.05-.089.08-.189.14-.279.18-.321.35-.641.51-.98a.124.124,0,0,1,.04-.07c.04-.12.09-.231.14-.351.08-.19.17-.389.24-.579s.12-.361.17-.541a.071.071,0,0,0,.01-.039c.02-.021.01-.04.03-.06.03-.091.06-.19.08-.271,0-.029.01-.029.01-.049s.01-.031.02-.06a13.189,13.189,0,0,0,.28-1.36.484.484,0,0,1,.01-.12,10.552,10.552,0,0,0,.11-1.26.168.168,0,0,1,.01-.07c0-.071-.01-.151-.01-.221,0-.23.01-.459,0-.69a5.7,5.7,0,0,0-.05-.73,2.8,2.8,0,0,0-.01-.289c-.03-.211-.06-.44-.11-.651-.03-.18-.07-.37-.11-.539,0,0-.08-.351-.17-.68-.23-.791-1.43-3.661-1.99-5.68a24.937,24.937,0,0,1-.76-5.9c-.01-.31-.02-.62-.02-.93a28.288,28.288,0,0,1,.93-7.43c.18-.651.38-1.291.6-1.911a29.152,29.152,0,0,1,1.63-3.76,26.642,26.642,0,0,1,6.17-7.87A27.006,27.006,0,0,1,324.092,158.222Z" fill="#c1d38c"/>
      <path id="Trazado_878" data-name="Trazado 878" d="M327.462,205.583a28.339,28.339,0,0,1-7.66,13.13,27.694,27.694,0,0,1-8.25,5.47,27.123,27.123,0,0,1-7.99,2.039,27.81,27.81,0,0,1-14.87-2.73,28.28,28.28,0,0,1-12.08-11.89,31.787,31.787,0,0,1-2.83-8.88,34.042,34.042,0,0,1-.28-5.2c.023-.7.073-1.315.08-1.4a22.227,22.227,0,0,1,.43-3.04c.05-.221.09-.44.14-.65s.09-.41.14-.6c-.12,2.269-.27,10.279,4.64,17.43q.165.238.36.51c.12.17.26.35.4.54.31.4.66.839,1.07,1.3.27.31.63.711,1.07,1.17.11.12.23.241.37.37.12.13.26.26.41.4s.29.261.44.411c0,.009,0,.009.01,0q.69.645,1.53,1.29c0,.01.01,0,.01,0,.19.149.38.289.58.44s.41.289.62.43q.45.315.93.6.375.227.78.45a.506.506,0,0,1,.09.05c.39.211.8.421,1.22.6s.86.37,1.31.539a4.548,4.548,0,0,0,.6.2c.19.07.37.13.55.179a.7.7,0,0,0,.15.04,20.708,20.708,0,0,0,7.52.741c.49-.02.94-.06,1.35-.1.18-.02.39-.039.6-.06.11-.01.22-.029.33-.039.24-.031.48-.07.73-.1.39-.06.81-.13,1.25-.219.14-.031.29-.06.44-.091.17-.039.36-.079.58-.13.05-.009.11-.029.16-.04a25.353,25.353,0,0,0,9.09-4.109c.09-.07.18-.13.27-.211.24-.169.48-.349.7-.539.15-.12.29-.24.43-.351.41-.349.82-.719,1.22-1.11.23-.219.45-.45.67-.669.32-.341.62-.68.92-1.031a.109.109,0,0,1,.04-.05c.25-.289.48-.589.7-.88a28.3,28.3,0,0,0,3.24-5.31c.03-.06.06-.12.09-.169.03-.071.06-.13.09-.19.09-.18.18-.36.25-.54a32.682,32.682,0,0,0,2.03-5.361c.03-.079.05-.149.07-.219.09-.31.18-.61.25-.911a4.681,4.681,0,0,0,.12-.509,6.4,6.4,0,0,0,.15-.661c.11-.529.19-1.039.26-1.52.04-.24.07-.5.09-.759.03-.3.06-.591.08-.861.02-.42.04-.81.04-1.17v-.159a14.007,14.007,0,0,0-.03-1.58,20.491,20.491,0,0,0-.27-2.35c-.02-.13-.04-.25-.06-.38-.02-.1-.03-.2-.05-.3-.03-.17-.07-.339-.1-.5a.034.034,0,0,1-.01-.029c-.04-.17-.08-.341-.12-.5-.06-.261-.12-.511-.19-.75l-.03-.12c-.05-.151-.09-.291-.13-.43-.02-.07-.04-.13-.06-.2-.05-.17-.11-.341-.16-.5s-.11-.31-.16-.461a28.076,28.076,0,0,1,2.89,5.87A28.766,28.766,0,0,1,327.462,205.583Z" fill="#738952"/>
      <path id="Trazado_879" data-name="Trazado 879" d="M308.982,172.352a21.609,21.609,0,0,0-7.73,2.211c-9,4.56-14.31,15.6-12.68,25.039a19.786,19.786,0,0,0,1.61,5.031c-.11-.151-.22-.31-.33-.471a29.678,29.678,0,0,1-4.68-10.19,27.777,27.777,0,0,1,.62-15.959,24.457,24.457,0,0,1,1.25-2.87c.1-.21.2-.4.3-.57a25.312,25.312,0,0,1,8.99-3.31A25.848,25.848,0,0,1,308.982,172.352Z" fill="#eaedaf"/>
      <path id="Trazado_880" data-name="Trazado 880" d="M325.192,191.453v.159c0,.36-.02.75-.04,1.17-.02.27-.05.56-.08.861-.02.25-.05.5-.09.759-.07.481-.15.991-.26,1.52a6.4,6.4,0,0,1-.15.661,4.681,4.681,0,0,1-.12.509c-.07.3-.16.6-.25.911-.02.07-.04.14-.07.219-.08.25-.18.551-.31.9-.43,1.219-.96,2.76-1.72,4.46-.07.18-.16.36-.25.54-.03.06-.06.119-.09.19-.03.049-.06.109-.09.169a31.586,31.586,0,0,1-3.24,5.31c-.22.291-.45.591-.7.88a.109.109,0,0,0-.04.05c-.3.341-.61.69-.92,1.031-.22.219-.44.45-.67.669-.4.391-.81.761-1.22,1.11-.14.111-.28.231-.43.351-.23.19-.47.37-.7.539a26.077,26.077,0,0,1-9.36,4.32c-.05.011-.11.031-.16.04-.2.041-.39.091-.58.13-.15.031-.3.06-.44.091-.44.089-.86.159-1.25.219-.25.031-.49.07-.73.1-.11.01-.22.029-.33.039-.21.021-.42.04-.6.06-.41.041-.86.081-1.35.1-.92.04-1.68.019-2.21,0a30.063,30.063,0,0,1-4.92-.65c-.08-.021-.17-.04-.25-.06-.28-.081-.56-.161-.84-.25a4.548,4.548,0,0,1-.6-.2c-.45-.169-.89-.349-1.31-.539s-.83-.39-1.22-.6a.506.506,0,0,0-.09-.05q-.4-.224-.78-.45-.48-.285-.93-.6c-.21-.141-.42-.29-.62-.43s-.39-.291-.58-.44c0,0-.01.01-.01,0-.56-.44-1.07-.88-1.53-1.29-.01.009-.01.009-.01,0-.15-.15-.3-.28-.44-.411s-.27-.27-.41-.4-.26-.25-.37-.37c-.44-.459-.8-.86-1.07-1.17-.41-.46-.76-.9-1.07-1.3-.14-.19-.28-.37-.4-.54s-.25-.351-.36-.51a20.021,20.021,0,0,0,1.97,1.969,22.115,22.115,0,0,0,10.62,4.93c1.64.32,12.27,2.161,20.07-4.969a22.385,22.385,0,0,0,6.51-11.661c1.7-7.6-1.64-11.12-.95-20.449a38.224,38.224,0,0,1,2.7-11.491,21.08,21.08,0,0,0,.13,4.64,25.675,25.675,0,0,0,1.88,6.451c.18.429.67,1.539,1.39,3.289.31.75.55,1.33.57,1.38.05.151.11.3.16.461s.11.33.16.5c.02.07.04.13.06.2.04.139.08.279.13.43l.03.12c.07.25.13.489.19.75.04.159.08.33.12.5a.034.034,0,0,0,.01.029c.03.161.07.33.1.5.02.1.03.2.05.3.02.13.04.25.06.38A29.143,29.143,0,0,1,325.192,191.453Z" fill="#fbf6dc"/>
    </g>
  </g>
</svg>
