<svg xmlns="http://www.w3.org/2000/svg" width="34.239" height="26.197" viewBox="0 0 34.239 26.197">
  <g id="Grupo_1495" data-name="Grupo 1495" transform="translate(-42.844 -545.064)">
    <g id="Grupo_71" data-name="Grupo 71" transform="translate(42.844 545.064)">
      <g id="Grupo_2" data-name="Grupo 2" transform="translate(0)">
        <path id="Trazado_8" data-name="Trazado 8" d="M-339.357,1689.256l-2.031-1.015a.034.034,0,0,1-.019-.031v-1.021a3.7,3.7,0,0,0,1.572-2.547,4.24,4.24,0,0,0,.573-2.124,4.25,4.25,0,0,0-1.7-3.4,2.153,2.153,0,0,0,.092-.621,2.525,2.525,0,0,0-2.646-2.378,2.525,2.525,0,0,0-2.646,2.378,2.151,2.151,0,0,0,.091.621,4.276,4.276,0,0,0-1.392,1.814c-.124-1.222-.254-2.666-.378-4.348a8.3,8.3,0,0,0-2.309-5.421,7.174,7.174,0,0,0-5.161-2.012,7.173,7.173,0,0,0-5.16,2.012,8.3,8.3,0,0,0-2.309,5.421c-.044.589-.088,1.148-.132,1.68h-4.728a3.186,3.186,0,0,0-3.182,3.182v.03a2.66,2.66,0,0,0,.279,1.183l.257.513v.819a3.913,3.913,0,0,0,1.608,3.163v.724a.21.21,0,0,1-.152.2l-2.071.592a2.118,2.118,0,0,0-1.53,2.028v4.148a.5.5,0,0,0,.5.5.5.5,0,0,0,.5-.5V1690.7a1.111,1.111,0,0,1,.8-1.064l2.071-.592a1.179,1.179,0,0,0,.213-.085l1.271,1.271v4.617a.5.5,0,0,0,.5.5.5.5,0,0,0,.5-.5v-4.617l1.28-1.28a2.745,2.745,0,0,0,.466.168l.509.145a2.646,2.646,0,0,0-1.114,2.155v3.427a.5.5,0,0,0,.5.5.5.5,0,0,0,.5-.5v-3.427a1.643,1.643,0,0,1,.979-1.5l2.867-1.267a5.319,5.319,0,0,0,4.765,2.946,5.307,5.307,0,0,0,4.766-2.945l2.867,1.266a1.643,1.643,0,0,1,.979,1.5v3.427a.5.5,0,0,0,.5.5.5.5,0,0,0,.5-.5v-3.427a2.645,2.645,0,0,0-.633-1.716l.776-.388.583.554a2.1,2.1,0,0,0,1.453.581,2.1,2.1,0,0,0,1.453-.581l.583-.554,1.675.838a1.1,1.1,0,0,1,.612.99v3.7a.5.5,0,0,0,.5.5.5.5,0,0,0,.5-.5v-3.7A2.1,2.1,0,0,0-339.357,1689.256Zm-4.16-12.133a1.528,1.528,0,0,1,1.643,1.375c0,.032,0,.063-.005.095a4.232,4.232,0,0,0-1.638-.328,4.23,4.23,0,0,0-1.637.328c0-.031-.005-.063-.005-.095A1.528,1.528,0,0,1-343.516,1677.123Zm-23.05,12.191-1.143-1.143a1.2,1.2,0,0,0,.036-.292v-.212a3.51,3.51,0,0,0,.993.175l.115,0a3.724,3.724,0,0,0,1.1-.167v.2a1.383,1.383,0,0,0,.031.3Zm-.084-2.474a2.806,2.806,0,0,1-2.631-2.848v-.937a.5.5,0,0,0-.053-.224l-.31-.619a1.652,1.652,0,0,1-.173-.735v-.03a2.181,2.181,0,0,1,2.179-2.179h4.323v2.082a2.19,2.19,0,0,1-.23.974l-.253.506a.5.5,0,0,0-.053.224v1.072a2.693,2.693,0,0,1-.824,1.948A2.7,2.7,0,0,1-366.651,1686.839Zm4.192,1.768-1.584-.453c-.414-.118-.414-.164-.414-.276v-.691a3.755,3.755,0,0,0,.479-.393,3.781,3.781,0,0,0,.284-.308,1.028,1.028,0,0,0,.364.41,11.077,11.077,0,0,0,2.276,1.091Zm7.149,1.986a4.319,4.319,0,0,1-3.847-2.348l.73-.323a1.574,1.574,0,0,0,.938-1.439v-1.2a5.833,5.833,0,0,0,2.179.42,5.834,5.834,0,0,0,2.179-.42v1.2a1.574,1.574,0,0,0,.938,1.439l.73.322A4.308,4.308,0,0,1-355.31,1690.593Zm4.349-3.223-.827-.365a.571.571,0,0,1-.34-.522v-1.724a5.862,5.862,0,0,0,2.68-4.921v-.941a2.092,2.092,0,0,0-.713-1.582,12.8,12.8,0,0,0-7.243-2.8.5.5,0,0,0-.549.449.5.5,0,0,0,.449.549,11.8,11.8,0,0,1,6.685,2.56,1.089,1.089,0,0,1,.368.825v.941a4.865,4.865,0,0,1-4.859,4.859,4.865,4.865,0,0,1-4.859-4.859v-.42a.546.546,0,0,1,.286-.472,3.969,3.969,0,0,0,1.833-2.166.5.5,0,0,0-.317-.634.5.5,0,0,0-.634.317,2.983,2.983,0,0,1-1.382,1.614,1.559,1.559,0,0,0-.788,1.342v.42a5.862,5.862,0,0,0,2.68,4.921v1.724a.571.571,0,0,1-.34.522l-.827.365a11.075,11.075,0,0,1-3.127-1.317.025.025,0,0,1-.012-.029c.175-1.034.624-4.017,1.019-9.366a7.319,7.319,0,0,1,2.012-4.78,6.191,6.191,0,0,1,4.456-1.724,6.191,6.191,0,0,1,4.456,1.724,7.319,7.319,0,0,1,2.012,4.78c.395,5.349.844,8.332,1.019,9.366a.025.025,0,0,1-.012.029A11.081,11.081,0,0,1-350.961,1687.37Zm5.335.84a.034.034,0,0,1-.019.031l-1.571.786-.055-.027-2.293-1.013a11.069,11.069,0,0,0,2.276-1.091,1.031,1.031,0,0,0,.456-1.038l-.012-.071a3.708,3.708,0,0,0,1.218,1.4Zm2.872.932a1.106,1.106,0,0,1-1.525,0l-.466-.443a1.038,1.038,0,0,0,.122-.49v-.534a3.726,3.726,0,0,0,1.107.168,3.725,3.725,0,0,0,1.107-.168v.534a1.037,1.037,0,0,0,.122.49Zm-.762-2.3a2.708,2.708,0,0,1-2.7-2.419.5.5,0,0,0-.071-.208,3.24,3.24,0,0,1-.482-1.7,3.255,3.255,0,0,1,3.251-3.251,3.255,3.255,0,0,1,3.251,3.251,3.217,3.217,0,0,1-.165,1.015,9.311,9.311,0,0,0-4.05-2.04.5.5,0,0,0-.422.1.5.5,0,0,0-.187.391,1.226,1.226,0,0,1-.389.717.5.5,0,0,0,0,.709.5.5,0,0,0,.709,0,2.427,2.427,0,0,0,.545-.81,6.778,6.778,0,0,1,3.382,2A2.708,2.708,0,0,1-343.516,1686.841Z" transform="translate(372.429 -1669.151)" fill="#fff"/>
      </g>
    </g>
  </g>
</svg>
