<svg xmlns="http://www.w3.org/2000/svg" width="32.696" height="32.698" viewBox="0 0 32.696 32.698">
  <g id="Grupo_1494" data-name="Grupo 1494" transform="translate(4.179 6.179)">
    <path id="Trazado_15" data-name="Trazado 15" d="M29.949,32.752H19.691V20.463H13.265V32.752H3.006V20.463a2.833,2.833,0,0,1-2.7-1.889A2.9,2.9,0,0,1,1,15.532L16.478.054l15.5,15.5a2.874,2.874,0,0,1-2.032,4.906V32.752Zm-8.342-1.916h6.426V18.547h1.916a.958.958,0,0,0,.677-1.635L16.478,2.764,2.329,16.912a.958.958,0,0,0,.677,1.635H4.922V30.836h6.426V18.547H21.607V30.836Z" transform="translate(-4.313 -6.233)" fill="#fff"/>
  </g>
</svg>
