<svg xmlns="http://www.w3.org/2000/svg" width="31.027" height="34.609" viewBox="0 0 31.027 34.609">
  <g id="Grupo_1493" data-name="Grupo 1493" transform="translate(-46.598 -374.209)">
    <path id="approval" d="M14.533,33.258a1.352,1.352,0,0,1-1.352,1.352H5.408A5.414,5.414,0,0,1,0,29.2V5.408A5.414,5.414,0,0,1,5.408,0H22.029a5.414,5.414,0,0,1,5.408,5.408V19.738a1.352,1.352,0,1,1-2.7,0V5.408a2.707,2.707,0,0,0-2.7-2.7H5.408a2.707,2.707,0,0,0-2.7,2.7V29.2a2.707,2.707,0,0,0,2.7,2.7h7.774A1.352,1.352,0,0,1,14.533,33.258ZM30.462,22.019a1.352,1.352,0,0,0-1.886.312l-6.664,9.308A.772.772,0,0,1,20.8,31.7l-4.314-4.142a1.352,1.352,0,1,0-1.873,1.95l4.318,4.147a3.487,3.487,0,0,0,2.4.958q.114,0,.229-.008a3.484,3.484,0,0,0,2.478-1.291c.016-.019.031-.039.045-.06l6.691-9.346A1.352,1.352,0,0,0,30.462,22.019ZM20.677,8.112H6.752a1.352,1.352,0,1,0,0,2.7H20.677a1.352,1.352,0,0,0,0-2.7Zm1.352,6.76a1.352,1.352,0,0,0-1.352-1.352H6.752a1.352,1.352,0,1,0,0,2.7H20.677A1.352,1.352,0,0,0,22.029,14.871ZM6.752,18.927a1.352,1.352,0,1,0,0,2.7h8.457a1.352,1.352,0,1,0,0-2.7Zm0,0" transform="translate(46.598 374.209)" fill="#fff"/>
  </g>
</svg>
