<?xml version="1.0"?>
<svg xmlns="http://www.w3.org/2000/svg" height="512px" viewBox="0 0 436.90667 436.90667" width="512px"><path d="m140.792969 300.070312c-.148438 0-.300781-.003906-.445313-.015624-78.699218-5.09375-140.347656-70.921876-140.347656-149.867188 0-82.8125 67.375-150.1875 150.1875-150.1875 78.550781 0 144.367188 61.320312 149.820312 139.597656.257813 3.761719-2.582031 7.023438-6.339843 7.285156-3.695313.253907-7.027344-2.574218-7.289063-6.335937-4.953125-71.15625-64.777344-126.894531-136.191406-126.894531-75.285156 0-136.535156 61.25-136.535156 136.535156 0 71.769531 56.042968 131.613281 127.574218 136.242188 3.761719.246093 6.613282 3.492187 6.371094 7.253906-.230468 3.613281-3.238281 6.386718-6.804687 6.386718zm0 0" fill="#FFFFFF"/><path d="m150.1875 177.492188c-16.355469 0-31.347656-5.765626-40.113281-15.417969-2.535157-2.792969-2.328125-7.109375.464843-9.644531 2.785157-2.527344 7.105469-2.328126 9.640626.46875 6.128906 6.75 17.625 10.941406 30.007812 10.941406 12.238281 0 23.671875-4.125 29.84375-10.765625 2.582031-2.765625 6.894531-2.914063 9.648438-.351563 2.757812 2.566406 2.917968 6.886719.351562 9.644532-8.796875 9.472656-23.691406 15.125-39.84375 15.125zm0 0" fill="#FFFFFF"/><path d="m102.398438 88.746094c0 7.542968-6.109376 13.652344-13.652344 13.652344-7.539063 0-13.652344-6.109376-13.652344-13.652344 0-7.539063 6.113281-13.652344 13.652344-13.652344 7.542968 0 13.652344 6.113281 13.652344 13.652344zm0 0" fill="#FFFFFF"/><path d="m225.28125 88.746094c0 7.542968-6.113281 13.652344-13.65625 13.652344-7.539062 0-13.652344-6.109376-13.652344-13.652344 0-7.539063 6.113282-13.652344 13.652344-13.652344 7.542969 0 13.65625 6.113281 13.65625 13.652344zm0 0" fill="#FFFFFF"/><path d="m286.71875 436.90625c-82.8125 0-150.183594-67.375-150.183594-150.1875s67.371094-150.183594 150.183594-150.183594 150.1875 67.371094 150.1875 150.183594-67.375 150.1875-150.1875 150.1875zm0-286.71875c-75.285156 0-136.53125 61.246094-136.53125 136.53125s61.246094 136.535156 136.53125 136.535156c75.289062 0 136.535156-61.25 136.535156-136.535156s-61.246094-136.53125-136.535156-136.53125zm0 0" fill="#FFFFFF"/><path d="m321.566406 375.464844c-1.851562 0-3.707031-.75-5.054687-2.234375-6.132813-6.75-17.632813-10.945313-30.011719-10.945313-12.234375 0-23.667969 4.125-29.839844 10.765625-2.566406 2.765625-6.894531 2.914063-9.644531.351563-2.761719-2.566406-2.921875-6.886719-.355469-9.648438 8.800782-9.46875 23.695313-15.121094 39.839844-15.121094 16.347656 0 31.347656 5.761719 40.121094 15.417969 2.535156 2.789063 2.328125 7.105469-.460938 9.640625-1.3125 1.1875-2.953125 1.773438-4.59375 1.773438zm0 0" fill="#FFFFFF"/><path d="m238.933594 286.71875c0 7.542969-6.113282 13.65625-13.652344 13.65625-7.542969 0-13.65625-6.113281-13.65625-13.65625 0-7.539062 6.113281-13.652344 13.65625-13.652344 7.539062 0 13.652344 6.113282 13.652344 13.652344zm0 0" fill="#FFFFFF"/><path d="m361.8125 286.71875c0 7.542969-6.113281 13.65625-13.652344 13.65625-7.539062 0-13.652344-6.113281-13.652344-13.65625 0-7.539062 6.113282-13.652344 13.652344-13.652344 7.539063 0 13.652344 6.113282 13.652344 13.652344zm0 0" fill="#FFFFFF"/></svg>
