<svg xmlns="http://www.w3.org/2000/svg" width="39.108" height="39.236" viewBox="0 0 39.108 39.236">
  <g id="Grupo_1496" data-name="Grupo 1496" transform="translate(-40 -618)">
    <g id="package-cube-box-for-delivery" transform="translate(38.999 618)">
      <path id="Trazado_942" data-name="Trazado 942" d="M1.043,31.077,1,13.245a1.221,1.221,0,0,1,1.7-1.126l16.233,6.939a1.221,1.221,0,0,1,.741,1.12l.042,17.832a1.221,1.221,0,0,1-1.7,1.126L1.784,32.2A1.221,1.221,0,0,1,1.043,31.077ZM38.237,14.084,23.257,20.572l.039,16.5,14.981-6.488-.039-16.5m.606-2.151a1.222,1.222,0,0,1,1.223,1.22l.042,17.832a1.221,1.221,0,0,1-.736,1.123l-16.2,7.016a1.219,1.219,0,0,1-1.706-1.118l-.042-17.832a1.221,1.221,0,0,1,.736-1.123l16.2-7.016a1.218,1.218,0,0,1,.483-.1ZM20.436,1.889,4.9,8.828l15.572,6.865,15.54-6.938L20.436,1.889m0-1.889a1.221,1.221,0,0,1,.5.1l17.08,7.529a1.221,1.221,0,0,1,.005,2.232l-17.044,7.61a1.221,1.221,0,0,1-.99,0L2.9,9.948a1.221,1.221,0,0,1-.005-2.232L19.937.106a1.221,1.221,0,0,1,.5-.106Z" transform="translate(0)" fill="#fff"/>
    </g>
  </g>
</svg>
