<svg xmlns="http://www.w3.org/2000/svg" width="32.849" height="32.849" viewBox="0 0 32.849 32.849">
  <g id="Grupo_1498" data-name="Grupo 1498" transform="translate(-47.698 -955.988)">
    <g id="Grupo_5" data-name="Grupo 5" transform="translate(47.698 955.988)">
      <path id="Trazado_16" data-name="Trazado 16" d="M292.148,134.782l.01-.014c.017-.021.033-.043.048-.065s.017-.028.026-.042.017-.028.025-.042.019-.038.028-.058.01-.021.015-.031.018-.047.026-.071l.007-.022q.014-.046.024-.093v0a1.025,1.025,0,0,0-.279-.935l-5.133-5.133a1.027,1.027,0,0,0-1.452,1.452l3.382,3.382H278.35a1.027,1.027,0,1,0,0,2.053h10.524l-3.379,3.379a1.026,1.026,0,1,0,1.452,1.451l5.124-5.124A1.032,1.032,0,0,0,292.148,134.782Z" transform="translate(-259.53 -119.764)" fill="#fff"/>
      <path id="Trazado_17" data-name="Trazado 17" d="M20.872,17.809a1.027,1.027,0,0,0-1.027,1.027v6.159a1.713,1.713,0,0,1-1.711,1.711H13.687V5.491a2.762,2.762,0,0,0-1.864-2.6L9.366,2.069h8.769A1.713,1.713,0,0,1,19.846,3.78V9.939a1.027,1.027,0,0,0,2.053,0V3.78A3.767,3.767,0,0,0,18.135.016H2.737A2.74,2.74,0,0,0,0,2.753V27.39a2.763,2.763,0,0,0,1.864,2.6L10.1,32.737a2.822,2.822,0,0,0,.849.127,2.74,2.74,0,0,0,2.737-2.737V28.758h4.448A3.767,3.767,0,0,0,21.9,24.994V18.835A1.027,1.027,0,0,0,20.872,17.809ZM11.634,30.127a.686.686,0,0,1-.684.684.743.743,0,0,1-.223-.03l-8.2-2.732a.711.711,0,0,1-.475-.66V2.753a.686.686,0,0,1,.684-.684.742.742,0,0,1,.223.03l8.2,2.732a.711.711,0,0,1,.475.66Z" transform="translate(0 -0.016)" fill="#fff"/>
    </g>
  </g>
</svg>
