<svg id="Grupo_1499" data-name="Grupo 1499" xmlns="http://www.w3.org/2000/svg" width="22.491" height="25.846" viewBox="0 0 22.491 25.846">
  <path id="Trazado_754" data-name="Trazado 754" d="M16.728,23.311,11.743,25.5a3,3,0,1,0,4.985-2.186Z" transform="translate(-1.356 -2.69)" fill="#f7f7f7"/>
  <path id="Trazado_755" data-name="Trazado 755" d="M22.389,14.387c-.433-1.033-1.851-1.069-1.932-1.073-2.643-.44-5.05-5.966-5.05-5.966A8.8,8.8,0,0,0,7.523,2.232a2.733,2.733,0,0,0-.134-.44A3,3,0,0,0,1.9,4.2a2.662,2.662,0,0,0,.24.409A8.39,8.39,0,0,0,.729,13.722s2.507,5.493,1.015,7.786a2.218,2.218,0,0,0-.478,1.985c.345,1,1.957,1.253,3.415.624L20.5,17.3C21.957,16.672,22.8,15.364,22.389,14.387Z" transform="translate(0 0.001)" fill="#f7f7f7"/>
</svg>
