<svg xmlns="http://www.w3.org/2000/svg" width="23.352" height="24.288" viewBox="0 0 23.352 24.288">
  <g id="refresh" transform="translate(0.501 0.5)">
    <g id="Grupo_1474" data-name="Grupo 1474" transform="translate(0)">
      <path id="Trazado_943" data-name="Trazado 943" d="M31.63,10.264a.867.867,0,0,0-1.713.273l0,.015A9.55,9.55,0,1,1,27.548,5.7l-3.843,1.28a.867.867,0,0,0-.549,1.1h0a.867.867,0,0,0,1.1.549h0l5.2-1.735a.867.867,0,0,0,.593-.823V.867a.867.867,0,1,0-1.735,0V4.036a11.163,11.163,0,1,0,3.314,6.228Z" transform="translate(-9.461 0)" fill="#738952" stroke="#738952" stroke-width="1"/>
    </g>
  </g>
</svg>
