<svg xmlns="http://www.w3.org/2000/svg" width="28.754" height="28.754" viewBox="0 0 28.754 28.754">
  <g id="Grupo_1497" data-name="Grupo 1497" transform="translate(-45 -793.023)">
    <g id="Grupo_1135" data-name="Grupo 1135" transform="translate(45 793.023)">
      <path id="Trazado_853" data-name="Trazado 853" d="M27.273,11.182h-2.69a1.033,1.033,0,0,1-.731-1.763l1.9-1.9a1.482,1.482,0,0,0,0-2.094L23.33,3a1.516,1.516,0,0,0-2.094,0l-1.9,1.9a1.033,1.033,0,0,1-1.763-.73V1.48A1.482,1.482,0,0,0,16.091,0H12.662a1.482,1.482,0,0,0-1.48,1.48V4.17a1.033,1.033,0,0,1-1.763.73L7.517,3A1.516,1.516,0,0,0,5.423,3L3,5.423A1.482,1.482,0,0,0,3,7.517l1.9,1.9a1.033,1.033,0,0,1-.731,1.763H1.48A1.482,1.482,0,0,0,0,12.662v3.429a1.482,1.482,0,0,0,1.48,1.481H4.17A1.033,1.033,0,0,1,4.9,19.335L3,21.236A1.482,1.482,0,0,0,3,23.33l2.424,2.424a1.515,1.515,0,0,0,2.094,0l1.9-1.9a1.033,1.033,0,0,1,1.763.731v2.69a1.482,1.482,0,0,0,1.48,1.48h3.429a1.482,1.482,0,0,0,1.48-1.48v-2.69a1.033,1.033,0,0,1,1.763-.731l1.9,1.9a1.516,1.516,0,0,0,2.094,0l2.424-2.424a1.482,1.482,0,0,0,0-2.094l-1.9-1.9a1.033,1.033,0,0,1,.731-1.763h2.69a1.482,1.482,0,0,0,1.48-1.48V12.662A1.482,1.482,0,0,0,27.273,11.182Zm.415,4.909a.416.416,0,0,1-.415.415h-2.69A2.1,2.1,0,0,0,23.1,20.088l1.9,1.9a.416.416,0,0,1,0,.588L22.577,25a.416.416,0,0,1-.588,0l-1.9-1.9a2.1,2.1,0,0,0-3.581,1.483v2.69a.416.416,0,0,1-.415.415H12.662a.416.416,0,0,1-.415-.415v-2.69a2.065,2.065,0,0,0-1.295-1.938,2.122,2.122,0,0,0-.816-.166,2.069,2.069,0,0,0-1.47.62L6.764,25a.416.416,0,0,1-.588,0L3.752,22.577a.416.416,0,0,1,0-.588l1.9-1.9A2.1,2.1,0,0,0,4.17,16.507H1.48a.416.416,0,0,1-.415-.415V12.662a.416.416,0,0,1,.415-.415H4.17A2.1,2.1,0,0,0,5.654,8.666l-1.9-1.9a.416.416,0,0,1,0-.588L6.176,3.752a.416.416,0,0,1,.588,0l1.9,1.9A2.1,2.1,0,0,0,12.247,4.17V1.48a.416.416,0,0,1,.415-.415h3.429a.416.416,0,0,1,.416.415V4.17a2.1,2.1,0,0,0,3.581,1.483l1.9-1.9a.416.416,0,0,1,.588,0L25,6.177a.416.416,0,0,1,0,.588l-1.9,1.9a2.1,2.1,0,0,0,1.483,3.581h2.69a.415.415,0,0,1,.415.415Z" fill="#fff"/>
      <path id="Trazado_854" data-name="Trazado 854" d="M22.792,18a4.792,4.792,0,1,0,4.792,4.792A4.8,4.8,0,0,0,22.792,18Zm0,8.52a3.727,3.727,0,1,1,3.727-3.727A3.732,3.732,0,0,1,22.792,26.52Z" transform="translate(-8.415 -8.415)" fill="#fff"/>
    </g>
  </g>
</svg>
